# ProBuilder 4.0.5
# https://unity3d.com/unity/features/worldbuilding/probuilder
# 29/12/2019 14:35:18

mtllib ./Cone.mtl
o Cone

g Cone
v -2.412922 -1.813443 0.7646843
v -2.403315 -1.813443 0.8622295
v -1.912922 -0.8134431 0.7646843
v -1.912922 -1.813443 0.7646843
v -2.374862 -1.813443 0.9560261
v -2.328657 -1.813443 1.04247
v -2.266476 -1.813443 1.118238
v -2.190707 -1.813443 1.180419
v -2.104264 -1.813443 1.226624
v -2.010468 -1.813443 1.255077
v -1.912922 -1.813443 1.264684
v -1.815377 -1.813443 1.255077
v -1.721581 -1.813443 1.226624
v -1.635137 -1.813443 1.180419
v -1.559369 -1.813443 1.118238
v -1.497188 -1.813443 1.042469
v -1.450983 -1.813443 0.9560261
v -1.42253 -1.813443 0.8622295
v -1.412922 -1.813443 0.7646843
v -1.42253 -1.813443 0.6671392
v -1.450983 -1.813443 0.5733426
v -1.497188 -1.813443 0.4868992
v -1.559369 -1.813443 0.411131
v -1.635137 -1.813443 0.3489496
v -1.721581 -1.813443 0.3027446
v -1.815377 -1.813443 0.2742917
v -1.912922 -1.813443 0.2646843
v -2.010468 -1.813443 0.2742917
v -2.104264 -1.813443 0.3027446
v -2.190707 -1.813443 0.3489495
v -2.266476 -1.813443 0.4111309
v -2.328657 -1.813443 0.4868992
v -2.374862 -1.813443 0.5733426
v -2.403315 -1.813443 0.6671392

vt 0 0
vt 0.09801714 3.006054E-10
vt 0.04900864 1.116959
vt 0.009607375 0.09754516
vt 0.5 0
vt 0.09613378 -0.008518708
vt 0.1941509 -0.008518709
vt 0.1451423 1.108441
vt 0.03806025 0.1913417
vt 0.1866898 -0.02522877
vt 0.284707 -0.02522878
vt 0.2356984 1.091731
vt 0.0842652 0.2777851
vt 0.2681881 -0.04948803
vt 0.3662052 -0.04948803
vt 0.3171967 1.067471
vt 0.1464466 0.3535534
vt 0.3374967 -0.08036418
vt 0.4355138 -0.08036418
vt 0.3865052 1.036595
vt 0.2222149 0.4157348
vt 0.391952 -0.1166707
vt 0.4899692 -0.1166707
vt 0.4409607 1.000289
vt 0.3086583 0.4619398
vt 0.4294617 -0.1570124
vt 0.5274788 -0.1570124
vt 0.4784702 0.9599469
vt 0.4024548 0.4903926
vt 0.4485838 -0.1998388
vt 0.546601 -0.1998388
vt 0.4975924 0.9171205
vt 0.5 0.5
vt 0.4485837 -0.2435044
vt 0.5466008 -0.2435044
vt 0.4975924 0.873455
vt 0.5975451 0.4903926
vt 0.4294618 -0.2863307
vt 0.5274789 -0.2863307
vt 0.4784702 0.8306286
vt 0.6913417 0.4619398
vt 0.391952 -0.3266725
vt 0.4899691 -0.3266725
vt 0.4409606 0.7902868
vt 0.7777851 0.4157348
vt 0.3374969 -0.362979
vt 0.4355141 -0.362979
vt 0.3865053 0.7539804
vt 0.8535534 0.3535534
vt 0.268188 -0.3938552
vt 0.3662051 -0.3938552
vt 0.3171966 0.7231042
vt 0.9157348 0.2777851
vt 0.1866897 -0.4181145
vt 0.2847068 -0.4181145
vt 0.2356983 0.6988449
vt 0.9619398 0.1913417
vt 0.09613419 -0.4348245
vt 0.1941514 -0.4348245
vt 0.1451426 0.6821349
vt 0.9903927 0.09754515
vt -4.876606E-07 -0.4433432
vt 0.09801669 -0.4433432
vt 0.04900832 0.6736162
vt 1 -4.371139E-08
vt -0.09801672 -0.4433432
vt -0.04900838 0.6736162
vt 0.9903927 -0.09754512
vt -0.1941514 -0.4348245
vt -0.09613422 -0.4348245
vt -0.1451426 0.6821349
vt 0.9619398 -0.1913417
vt -0.284707 -0.4181144
vt -0.1866898 -0.4181144
vt -0.2356984 0.6988449
vt 0.9157348 -0.2777852
vt -0.3662052 -0.3938551
vt -0.2681881 -0.3938551
vt -0.3171966 0.7231042
vt 0.8535534 -0.3535534
vt -0.4355138 -0.362979
vt -0.3374967 -0.362979
vt -0.3865052 0.7539803
vt 0.7777852 -0.4157347
vt -0.489969 -0.3266725
vt -0.3919518 -0.3266725
vt -0.4409605 0.7902868
vt 0.6913418 -0.4619398
vt -0.5274788 -0.2863308
vt -0.4294617 -0.2863308
vt -0.4784702 0.8306285
vt 0.5975452 -0.4903926
vt -0.5466009 -0.2435043
vt -0.4485837 -0.2435043
vt -0.4975924 0.873455
vt 0.5 -0.5
vt -0.546601 -0.1998388
vt -0.4485838 -0.1998388
vt -0.4975924 0.9171205
vt 0.4024548 -0.4903926
vt -0.5274788 -0.1570124
vt -0.4294616 -0.1570124
vt -0.4784702 0.9599469
vt 0.3086582 -0.4619397
vt -0.4899691 -0.1166707
vt -0.3919522 -0.1166707
vt -0.4409606 1.000289
vt 0.222215 -0.4157349
vt -0.4355139 -0.0803642
vt -0.3374967 -0.0803642
vt -0.3865052 1.036595
vt 0.1464467 -0.3535534
vt -0.3662053 -0.04948808
vt -0.2681881 -0.04948808
vt -0.3171968 1.067471
vt 0.0842652 -0.2777852
vt -0.284707 -0.02522879
vt -0.1866898 -0.02522879
vt -0.2356984 1.091731
vt 0.03806022 -0.1913417
vt -0.1941509 -0.008518711
vt -0.09613373 -0.008518711
vt -0.1451423 1.108441
vt 0.009607345 -0.09754512
vt -0.0980171 -1.355944E-10
vt -0.04900852 1.116959

vn -0.8909767 0.4454883 0.08775368
vn 0 -1 0
vn -0.856737 0.4454883 0.2598883
vn -0.7895733 0.4454884 0.4220357
vn -0.6920667 0.4454883 0.5679646
vn -0.5679646 0.4454883 0.6920667
vn -0.4220356 0.4454883 0.7895734
vn -0.2598884 0.4454883 0.856737
vn -0.08775367 0.4454883 0.8909767
vn 0.08775369 0.4454883 0.8909767
vn 0.2598881 0.4454883 0.856737
vn 0.4220358 0.4454883 0.7895733
vn 0.5679643 0.4454883 0.692067
vn 0.6920668 0.4454883 0.5679644
vn 0.7895734 0.4454884 0.4220357
vn 0.8567368 0.4454884 0.2598887
vn 0.8909767 0.4454884 0.0877531
vn 0.8909767 0.4454884 -0.08775321
vn 0.8567368 0.4454884 -0.2598887
vn 0.7895733 0.4454884 -0.4220358
vn 0.6920668 0.4454883 -0.5679646
vn 0.5679646 0.4454883 -0.6920667
vn 0.422036 0.4454883 -0.7895731
vn 0.2598883 0.4454883 -0.856737
vn 0.08775364 0.4454883 -0.8909767
vn -0.08775364 0.4454883 -0.8909767
vn -0.2598884 0.4454883 -0.8567369
vn -0.4220358 0.4454884 -0.7895733
vn -0.5679644 0.4454883 -0.6920668
vn -0.6920666 0.4454884 -0.5679648
vn -0.7895733 0.4454884 -0.4220358
vn -0.856737 0.4454884 -0.2598882
vn -0.8909767 0.4454883 -0.08775344

g Cone
usemtl ProBuilderDefault
f 1/1/1 2/2/1 3/3/1
f 4/5/2 2/4/2 1/1/2
f 2/6/3 5/7/3 3/8/3
f 4/5/2 5/9/2 2/4/2
f 5/10/4 6/11/4 3/12/4
f 4/5/2 6/13/2 5/9/2
f 6/14/5 7/15/5 3/16/5
f 4/5/2 7/17/2 6/13/2
f 7/18/6 8/19/6 3/20/6
f 4/5/2 8/21/2 7/17/2
f 8/22/7 9/23/7 3/24/7
f 4/5/2 9/25/2 8/21/2
f 9/26/8 10/27/8 3/28/8
f 4/5/2 10/29/2 9/25/2
f 10/30/9 11/31/9 3/32/9
f 4/5/2 11/33/2 10/29/2
f 11/34/10 12/35/10 3/36/10
f 4/5/2 12/37/2 11/33/2
f 12/38/11 13/39/11 3/40/11
f 4/5/2 13/41/2 12/37/2
f 13/42/12 14/43/12 3/44/12
f 4/5/2 14/45/2 13/41/2
f 14/46/13 15/47/13 3/48/13
f 4/5/2 15/49/2 14/45/2
f 15/50/14 16/51/14 3/52/14
f 4/5/2 16/53/2 15/49/2
f 16/54/15 17/55/15 3/56/15
f 4/5/2 17/57/2 16/53/2
f 17/58/16 18/59/16 3/60/16
f 4/5/2 18/61/2 17/57/2
f 18/62/17 19/63/17 3/64/17
f 4/5/2 19/65/2 18/61/2
f 19/66/18 20/62/18 3/67/18
f 4/5/2 20/68/2 19/65/2
f 20/69/19 21/70/19 3/71/19
f 4/5/2 21/72/2 20/68/2
f 21/73/20 22/74/20 3/75/20
f 4/5/2 22/76/2 21/72/2
f 22/77/21 23/78/21 3/79/21
f 4/5/2 23/80/2 22/76/2
f 23/81/22 24/82/22 3/83/22
f 4/5/2 24/84/2 23/80/2
f 24/85/23 25/86/23 3/87/23
f 4/5/2 25/88/2 24/84/2
f 25/89/24 26/90/24 3/91/24
f 4/5/2 26/92/2 25/88/2
f 26/93/25 27/94/25 3/95/25
f 4/5/2 27/96/2 26/92/2
f 27/97/26 28/98/26 3/99/26
f 4/5/2 28/100/2 27/96/2
f 28/101/27 29/102/27 3/103/27
f 4/5/2 29/104/2 28/100/2
f 29/105/28 30/106/28 3/107/28
f 4/5/2 30/108/2 29/104/2
f 30/109/29 31/110/29 3/111/29
f 4/5/2 31/112/2 30/108/2
f 31/113/30 32/114/30 3/115/30
f 4/5/2 32/116/2 31/112/2
f 32/117/31 33/118/31 3/119/31
f 4/5/2 33/120/2 32/116/2
f 33/121/32 34/122/32 3/123/32
f 4/5/2 34/124/2 33/120/2
f 34/125/33 1/1/33 3/126/33
f 4/5/2 1/1/2 34/124/2

